<svg xmlns="http://www.w3.org/2000/svg" width="24" height="24" viewBox="0 0 24 24"><g><path fill="#4285F4" d="M21.805 10.023h-9.765v3.977h5.617c-.242 1.242-1.242 3.648-5.617 3.648-3.383 0-6.148-2.805-6.148-6.273s2.765-6.273 6.148-6.273c1.93 0 3.227.773 3.969 1.477l2.719-2.648c-1.711-1.57-3.93-2.547-6.688-2.547-5.523 0-10 4.477-10 10s4.477 10 10 10c5.742 0 9.547-4.023 9.547-9.695 0-.648-.07-1.148-.156-1.614z"/><path fill="#34A853" d="M3.545 7.548l3.273 2.402c.891-1.781 2.523-2.93 4.437-2.93 1.18 0 2.242.406 3.078 1.195l2.312-2.25c-1.406-1.312-3.211-2.113-5.39-2.113-3.672 0-6.695 2.992-6.695 6.695 0 1.07.258 2.086.711 2.977z"/><path fill="#FBBC05" d="M12 22c2.43 0 4.477-.805 5.969-2.188l-2.75-2.25c-.773.523-1.773.836-3.219.836-2.484 0-4.594-1.68-5.352-3.945l-3.273 2.523c1.617 3.188 5.016 5.024 8.625 5.024z"/><path fill="#EA4335" d="M21.805 10.023h-9.765v3.977h5.617c-.242 1.242-1.242 3.648-5.617 3.648-3.383 0-6.148-2.805-6.148-6.273s2.765-6.273 6.148-6.273c1.93 0 3.227.773 3.969 1.477l2.719-2.648c-1.711-1.57-3.93-2.547-6.688-2.547-5.523 0-10 4.477-10 10s4.477 10 10 10c5.742 0 9.547-4.023 9.547-9.695 0-.648-.07-1.148-.156-1.614z" opacity=".1"/></g></svg>